<svg width="250" height="492" viewBox="0 0 250 492" fill="none" xmlns="http://www.w3.org/2000/svg">
<line y1="157.667" x2="20" y2="157.667" stroke="#333333" stroke-width="2"/>
<line y1="1" x2="8" y2="1" stroke="#333333" stroke-width="2"/>
<line y1="21" x2="8" y2="21" stroke="#333333" stroke-width="2"/>
<line y1="11" x2="8" y2="11" stroke="#333333" stroke-width="2"/>
<line y1="31" x2="8" y2="31" stroke="#333333" stroke-width="2"/>
<line y1="41" x2="8" y2="41" stroke="#333333" stroke-width="2"/>
<line y1="51" x2="8" y2="51" stroke="#333333" stroke-width="2"/>
<line y1="61" x2="8" y2="61" stroke="#333333" stroke-width="2"/>
<line y1="71" x2="8" y2="71" stroke="#333333" stroke-width="2"/>
<line y1="81" x2="8" y2="81" stroke="#333333" stroke-width="2"/>
<line y1="91" x2="8" y2="91" stroke="#333333" stroke-width="2"/>
<line y1="101" x2="8" y2="101" stroke="#333333" stroke-width="2"/>
<line y1="111" x2="8" y2="111" stroke="#333333" stroke-width="2"/>
<line y1="121" x2="8" y2="121" stroke="#333333" stroke-width="2"/>
<line y1="131" x2="8" y2="131" stroke="#333333" stroke-width="2"/>
<line y1="141" x2="8" y2="141" stroke="#333333" stroke-width="2"/>
<line y1="151" x2="8" y2="151" stroke="#333333" stroke-width="2"/>
<line y1="161" x2="8" y2="161" stroke="#333333" stroke-width="2"/>
<line y1="171" x2="8" y2="171" stroke="#333333" stroke-width="2"/>
<line y1="181" x2="8" y2="181" stroke="#333333" stroke-width="2"/>
<line y1="191" x2="8" y2="191" stroke="#333333" stroke-width="2"/>
<line y1="201" x2="8" y2="201" stroke="#333333" stroke-width="2"/>
<line y1="211" x2="8" y2="211" stroke="#333333" stroke-width="2"/>
<line y1="221" x2="8" y2="221" stroke="#333333" stroke-width="2"/>
<line y1="231" x2="8" y2="231" stroke="#333333" stroke-width="2"/>
<line y1="241" x2="8" y2="241" stroke="#333333" stroke-width="2"/>
<line y1="251" x2="8" y2="251" stroke="#333333" stroke-width="2"/>
<line y1="261" x2="8" y2="261" stroke="#333333" stroke-width="2"/>
<line y1="271" x2="8" y2="271" stroke="#333333" stroke-width="2"/>
<line y1="281" x2="8" y2="281" stroke="#333333" stroke-width="2"/>
<line y1="291" x2="8" y2="291" stroke="#333333" stroke-width="2"/>
<line y1="301" x2="8" y2="301" stroke="#333333" stroke-width="2"/>
<line y1="311" x2="8" y2="311" stroke="#333333" stroke-width="2"/>
<line y1="321" x2="8" y2="321" stroke="#333333" stroke-width="2"/>
<line y1="331" x2="8" y2="331" stroke="#333333" stroke-width="2"/>
<line y1="341" x2="8" y2="341" stroke="#333333" stroke-width="2"/>
<line y1="351" x2="8" y2="351" stroke="#333333" stroke-width="2"/>
<line y1="361" x2="8" y2="361" stroke="#333333" stroke-width="2"/>
<line y1="371" x2="8" y2="371" stroke="#333333" stroke-width="2"/>
<line y1="381" x2="8" y2="381" stroke="#333333" stroke-width="2"/>
<line y1="391" x2="8" y2="391" stroke="#333333" stroke-width="2"/>
<line y1="401" x2="8" y2="401" stroke="#333333" stroke-width="2"/>
<line y1="411" x2="8" y2="411" stroke="#333333" stroke-width="2"/>
<line y1="421" x2="8" y2="421" stroke="#333333" stroke-width="2"/>
<line y1="431" x2="8" y2="431" stroke="#333333" stroke-width="2"/>
<line y1="441" x2="8" y2="441" stroke="#333333" stroke-width="2"/>
<line y1="451" x2="8" y2="451" stroke="#333333" stroke-width="2"/>
<line y1="461" x2="8" y2="461" stroke="#333333" stroke-width="2"/>
<line y1="471" x2="8" y2="471" stroke="#333333" stroke-width="2"/>
<line y1="481" x2="8" y2="481" stroke="#333333" stroke-width="2"/>
<line y1="491" x2="8" y2="491" stroke="#333333" stroke-width="2"/>
<line y1="324.34" x2="20" y2="324.34" stroke="#333333" stroke-width="2"/>
<line y1="-1" x2="20" y2="-1" transform="matrix(-1 0 0 1 250 158.667)" stroke="#333333" stroke-width="2"/>
<line y1="-1" x2="8" y2="-1" transform="matrix(-1 0 0 1 250 2)" stroke="#333333" stroke-width="2"/>
<line y1="-1" x2="8" y2="-1" transform="matrix(-1 0 0 1 250 22)" stroke="#333333" stroke-width="2"/>
<line y1="-1" x2="8" y2="-1" transform="matrix(-1 0 0 1 250 12)" stroke="#333333" stroke-width="2"/>
<line y1="-1" x2="8" y2="-1" transform="matrix(-1 0 0 1 250 32)" stroke="#333333" stroke-width="2"/>
<line y1="-1" x2="8" y2="-1" transform="matrix(-1 0 0 1 250 42)" stroke="#333333" stroke-width="2"/>
<line y1="-1" x2="8" y2="-1" transform="matrix(-1 0 0 1 250 52)" stroke="#333333" stroke-width="2"/>
<line y1="-1" x2="8" y2="-1" transform="matrix(-1 0 0 1 250 62)" stroke="#333333" stroke-width="2"/>
<line y1="-1" x2="8" y2="-1" transform="matrix(-1 0 0 1 250 72)" stroke="#333333" stroke-width="2"/>
<line y1="-1" x2="8" y2="-1" transform="matrix(-1 0 0 1 250 82)" stroke="#333333" stroke-width="2"/>
<line y1="-1" x2="8" y2="-1" transform="matrix(-1 0 0 1 250 92)" stroke="#333333" stroke-width="2"/>
<line y1="-1" x2="8" y2="-1" transform="matrix(-1 0 0 1 250 102)" stroke="#333333" stroke-width="2"/>
<line y1="-1" x2="8" y2="-1" transform="matrix(-1 0 0 1 250 112)" stroke="#333333" stroke-width="2"/>
<line y1="-1" x2="8" y2="-1" transform="matrix(-1 0 0 1 250 122)" stroke="#333333" stroke-width="2"/>
<line y1="-1" x2="8" y2="-1" transform="matrix(-1 0 0 1 250 132)" stroke="#333333" stroke-width="2"/>
<line y1="-1" x2="8" y2="-1" transform="matrix(-1 0 0 1 250 142)" stroke="#333333" stroke-width="2"/>
<line y1="-1" x2="8" y2="-1" transform="matrix(-1 0 0 1 250 152)" stroke="#333333" stroke-width="2"/>
<line y1="-1" x2="8" y2="-1" transform="matrix(-1 0 0 1 250 162)" stroke="#333333" stroke-width="2"/>
<line y1="-1" x2="8" y2="-1" transform="matrix(-1 0 0 1 250 172)" stroke="#333333" stroke-width="2"/>
<line y1="-1" x2="8" y2="-1" transform="matrix(-1 0 0 1 250 182)" stroke="#333333" stroke-width="2"/>
<line y1="-1" x2="8" y2="-1" transform="matrix(-1 0 0 1 250 192)" stroke="#333333" stroke-width="2"/>
<line y1="-1" x2="8" y2="-1" transform="matrix(-1 0 0 1 250 202)" stroke="#333333" stroke-width="2"/>
<line y1="-1" x2="8" y2="-1" transform="matrix(-1 0 0 1 250 212)" stroke="#333333" stroke-width="2"/>
<line y1="-1" x2="8" y2="-1" transform="matrix(-1 0 0 1 250 222)" stroke="#333333" stroke-width="2"/>
<line y1="-1" x2="8" y2="-1" transform="matrix(-1 0 0 1 250 232)" stroke="#333333" stroke-width="2"/>
<line y1="-1" x2="8" y2="-1" transform="matrix(-1 0 0 1 250 242)" stroke="#333333" stroke-width="2"/>
<line y1="-1" x2="8" y2="-1" transform="matrix(-1 0 0 1 250 252)" stroke="#333333" stroke-width="2"/>
<line y1="-1" x2="8" y2="-1" transform="matrix(-1 0 0 1 250 262)" stroke="#333333" stroke-width="2"/>
<line y1="-1" x2="8" y2="-1" transform="matrix(-1 0 0 1 250 272)" stroke="#333333" stroke-width="2"/>
<line y1="-1" x2="8" y2="-1" transform="matrix(-1 0 0 1 250 282)" stroke="#333333" stroke-width="2"/>
<line y1="-1" x2="8" y2="-1" transform="matrix(-1 0 0 1 250 292)" stroke="#333333" stroke-width="2"/>
<line y1="-1" x2="8" y2="-1" transform="matrix(-1 0 0 1 250 302)" stroke="#333333" stroke-width="2"/>
<line y1="-1" x2="8" y2="-1" transform="matrix(-1 0 0 1 250 312)" stroke="#333333" stroke-width="2"/>
<line y1="-1" x2="8" y2="-1" transform="matrix(-1 0 0 1 250 322)" stroke="#333333" stroke-width="2"/>
<line y1="-1" x2="8" y2="-1" transform="matrix(-1 0 0 1 250 332)" stroke="#333333" stroke-width="2"/>
<line y1="-1" x2="8" y2="-1" transform="matrix(-1 0 0 1 250 342)" stroke="#333333" stroke-width="2"/>
<line y1="-1" x2="8" y2="-1" transform="matrix(-1 0 0 1 250 352)" stroke="#333333" stroke-width="2"/>
<line y1="-1" x2="8" y2="-1" transform="matrix(-1 0 0 1 250 362)" stroke="#333333" stroke-width="2"/>
<line y1="-1" x2="8" y2="-1" transform="matrix(-1 0 0 1 250 372)" stroke="#333333" stroke-width="2"/>
<line y1="-1" x2="8" y2="-1" transform="matrix(-1 0 0 1 250 382)" stroke="#333333" stroke-width="2"/>
<line y1="-1" x2="8" y2="-1" transform="matrix(-1 0 0 1 250 392)" stroke="#333333" stroke-width="2"/>
<line y1="-1" x2="8" y2="-1" transform="matrix(-1 0 0 1 250 402)" stroke="#333333" stroke-width="2"/>
<line y1="-1" x2="8" y2="-1" transform="matrix(-1 0 0 1 250 412)" stroke="#333333" stroke-width="2"/>
<line y1="-1" x2="8" y2="-1" transform="matrix(-1 0 0 1 250 422)" stroke="#333333" stroke-width="2"/>
<line y1="-1" x2="8" y2="-1" transform="matrix(-1 0 0 1 250 432)" stroke="#333333" stroke-width="2"/>
<line y1="-1" x2="8" y2="-1" transform="matrix(-1 0 0 1 250 442)" stroke="#333333" stroke-width="2"/>
<line y1="-1" x2="8" y2="-1" transform="matrix(-1 0 0 1 250 452)" stroke="#333333" stroke-width="2"/>
<line y1="-1" x2="8" y2="-1" transform="matrix(-1 0 0 1 250 462)" stroke="#333333" stroke-width="2"/>
<line y1="-1" x2="8" y2="-1" transform="matrix(-1 0 0 1 250 472)" stroke="#333333" stroke-width="2"/>
<line y1="-1" x2="8" y2="-1" transform="matrix(-1 0 0 1 250 482)" stroke="#333333" stroke-width="2"/>
<line y1="-1" x2="8" y2="-1" transform="matrix(-1 0 0 1 250 492)" stroke="#333333" stroke-width="2"/>
<line y1="-1" x2="20" y2="-1" transform="matrix(-1 0 0 1 250 325.34)" stroke="#333333" stroke-width="2"/>
</svg>
