<svg width="250" height="252" viewBox="0 0 250 252" fill="none" xmlns="http://www.w3.org/2000/svg">
<line y1="251" x2="20" y2="251" stroke="#333333" stroke-width="2"/>
<line y1="1" x2="8" y2="1" stroke="#333333" stroke-width="2"/>
<line y1="21" x2="8" y2="21" stroke="#333333" stroke-width="2"/>
<line y1="11" x2="8" y2="11" stroke="#333333" stroke-width="2"/>
<line y1="31" x2="8" y2="31" stroke="#333333" stroke-width="2"/>
<line y1="41" x2="8" y2="41" stroke="#333333" stroke-width="2"/>
<line y1="51" x2="8" y2="51" stroke="#333333" stroke-width="2"/>
<line y1="61" x2="8" y2="61" stroke="#333333" stroke-width="2"/>
<line y1="71" x2="8" y2="71" stroke="#333333" stroke-width="2"/>
<line y1="81" x2="8" y2="81" stroke="#333333" stroke-width="2"/>
<line y1="91" x2="8" y2="91" stroke="#333333" stroke-width="2"/>
<line y1="101" x2="8" y2="101" stroke="#333333" stroke-width="2"/>
<line y1="111" x2="8" y2="111" stroke="#333333" stroke-width="2"/>
<line y1="121" x2="8" y2="121" stroke="#333333" stroke-width="2"/>
<line y1="131" x2="8" y2="131" stroke="#333333" stroke-width="2"/>
<line y1="141" x2="8" y2="141" stroke="#333333" stroke-width="2"/>
<line y1="151" x2="8" y2="151" stroke="#333333" stroke-width="2"/>
<line y1="161" x2="8" y2="161" stroke="#333333" stroke-width="2"/>
<line y1="171" x2="8" y2="171" stroke="#333333" stroke-width="2"/>
<line y1="181" x2="8" y2="181" stroke="#333333" stroke-width="2"/>
<line y1="191" x2="8" y2="191" stroke="#333333" stroke-width="2"/>
<line y1="201" x2="8" y2="201" stroke="#333333" stroke-width="2"/>
<line y1="211" x2="8" y2="211" stroke="#333333" stroke-width="2"/>
<line y1="221" x2="8" y2="221" stroke="#333333" stroke-width="2"/>
<line y1="231" x2="8" y2="231" stroke="#333333" stroke-width="2"/>
<line y1="241" x2="8" y2="241" stroke="#333333" stroke-width="2"/>
<line y1="251" x2="8" y2="251" stroke="#333333" stroke-width="2"/>
</svg>
